<svg xmlns="http://www.w3.org/2000/svg" width="32" height="32" viewBox="0 0 32 32"><path d="M19.036 9.136l1.414 1.414a1 1 0 0 1-1.414 1.414L17.62 10.55l-1.414 1.414.707.708a1 1 0 0 1-1.414 1.414l-.708-.707-1.414 1.413 1.414 1.414a1 1 0 1 1-1.414 1.414l-1.415-1.413-1.414 1.414.706.708a1 1 0 1 1-1.414 1.415l-.707-.707-.707.707 3.535 3.535 11.314-11.314-3.535-3.535-.707.706zm-12.02 9.192L18.327 7.015a2 2 0 0 1 2.83 0l3.534 3.535a2 2 0 0 1 0 2.83L13.38 24.69a2 2 0 0 1-2.83 0l-3.534-3.535a2 2 0 0 1 0-2.83z"/></svg>